

File size                        : 702 MiB
Duration                         : 1h 24mn
Overall bit rate                 : 1 163 Kbps


Video
ID                               : 0
Format                           : MPEG-4 Visual
Format profile                   : Advanced Simple@L5
Format settings, BVOP            : Yes
Format settings, QPel            : No
Format settings, GMC             : No warppoints
Format settings, Matrix          : Default (H.263)
Codec ID                         : XVID
Codec ID/Hint                    : XviD
Duration                         : 1h 24mn
Bit rate                         : 1 031 Kbps
Width                            : 640 pixels
Height                           : 272 pixels
Display aspect ratio             : 2.35:1
Frame rate                       : 25.000 fps
Color space                      : YUV
Chroma subsampling               : 4:2:0
Bit depth                        : 8 bits
Scan type                        : Progressive
Compression mode                 : Lossy
Bits/(Pixel*Frame)               : 0.237
Stream size                      : 622 MiB (89%)
Writing library                  : XviD 1.2.1 (UTC 2008-12-04)

Audio
ID                               : 1
Format                           : MPEG Audio
Format version                   : Version 1
Format profile                   : Layer 3
Mode                             : Joint stereo
Mode extension                   : MS Stereo
Codec ID                         : 55
Codec ID/Hint                    : MP3
Duration                         : 1h 24mn
Bit rate mode                    : Constant
Bit rate                         : 128 Kbps
Channel(s)                       : 2 channels
Sampling rate                    : 48.0 KHz
Compression mode                 : Lossy
Stream size                      : 77.3 MiB (11%)
Alignment                        : Aligned on interleaves
Interleave, duration             : 697 ms (17.42 video frames)
Interleave, preload duration     : 216 ms
Title                            : VTS_01_1 T80 2_0ch 192Kbps DELAY 0ms
Writing library                  : LAME3.98r
Encoding settings                : -m j -V 4 -q 2 -lowpass 17 -b 128


Imdb Link:http://www.imdb.com/title/tt1336253/


Shane Sweeney, Tom Geoffrey and Alex Edwards


Four friends set out on a motorcycle adventure weekend, clocking up miles in an attempt to outrun their age and urban lifestyles. After bartering with a local land owner for a place to set up camp, they spend the night reminiscing over their wasted youth. The following morning they spot an ominous looking caravan, and decide to investigate. Within minutes, an idiotic prank leads to a series of brutal events and a deadly race for survival. A modern plunge back into the worlds created by movies such as 'Deliverance' and 'Southern Comfort' but with a gritty British twang. Kidnap, murder and a hidden past are just some of the reasons these four adventurers should have stayed at home. An action thriller that will make you question who the villains really are. You cant outrun what's in your blood.



Source>>>>>>>>>>>>Sam thanks bro

Sample Provided


Greets:

*THC*,HiTM4N,MUSE,PrisM,DiGiTaL iNK,ViSiON,LEGi0N,FLAWL3SS,Rx,Hibees,aXXo,xXTHORNXx,Noir,IMAGiNE
PDU,ELEKTRI4KA,KART3LDVD,CTFX,202122,rosco,Toon,StevieL,skrufern + Zia,Smelly and Fabreezy bro.
All the people that make p2p what it is...THANKS
 
http://leetleech.org/images/68555148591375623726.png
 
http://leetleech.org/images/44397548724123020083.png
 
http://leetleech.org/images/12141794372247204304.png
 
http://leetleech.org/images/78549981864621113654.png